<svg xmlns="http://www.w3.org/2000/svg" viewBox="0 0 24 24" fill="none" stroke="currentColor" stroke-width="1.5" stroke-linecap="round" stroke-linejoin="round"><circle cx="12" cy="12" r="3"/><path d="M19.4 15a1.65 1.65 0 0 0 .33 1.82l.06.06a2 2 0 1 1-2.83 2.83l-.06-.06a1.65 1.65 0 0 0-1.82-.33 1.65 1.65 0 0 0-1 1.51V21a2 2 0 1 1-4 0v-.09a1.65 1.65 0 0 0-1-1.51 1.65 1.65 0 0 0-1.82.33l-.06.06A2 2 0 1 1 2.3 17.9l.06-.06a1.65 1.65 0 0 0 .33-1.82 1.65 1.65 0 0 0-1.51-1H3a2 2 0 1 1 0-4h.09a1.65 1.65 0 0 0 1.51-1 1.65 1.65 0 0 0-.33-1.82L4.5 4.9A2 2 0 1 1 7.3 2.07l.06.06a1.65 1.65 0 0 0 1.82.33H9a1.65 1.65 0 0 0 1-1.51V2a2 2 0 1 1 4 0v.09c0 .59.37 1.12.93 1.37.56.25 1.33.1 1.82-.33l.06-.06A2 2 0 1 1 19.4 6.1l-.06.06c-.43.49-.58 1.26-.33 1.82.25.56.78.93 1.37.93H21a2 2 0 1 1 0 4h-.09c-.59 0-1.12.37-1.37.93-.25.56-.1 1.33.33 1.82z"/></svg>